<?xml version="1.0" encoding="UTF-8" standalone="no"?>
<!-- Created with Inkscape (http://www.inkscape.org/) -->

<svg
   version="1.1"
   id="svg1"
   width="512"
   height="512"
   viewBox="0 0 512 512"
   xmlns="http://www.w3.org/2000/svg"
   xmlns:svg="http://www.w3.org/2000/svg">
  <defs
     id="defs1" />
  <g
     id="g12"
     transform="translate(-10,-9.999999)">
    <rect
       style="fill:#f8ae07;fill-opacity:1;stroke-width:0.924444"
       id="rect18"
       width="512"
       height="511.677"
       x="10"
       y="9.9999981" />
    <g
       id="g17"
       transform="matrix(1.3364222,0,0,1.3355792,-323.8338,-228.41018)">
      <g
         id="g15"
         transform="matrix(0.93303852,0,0,0.93303852,37.272415,13.787297)"
         style="stroke:#233040;stroke-opacity:1">
        <path
           style="fill:#233040;fill-opacity:1;stroke:#233040;stroke-width:0.861477;stroke-opacity:1"
           d="m 420.08708,267.20976 c 2.33331,-1.20604 4.90054,-5.93642 4.90418,-9.03643 0.008,-6.82179 -4.15477,-11.47745 -10.24493,-11.45795 -4.97542,0.0159 -7.68303,1.36646 -10.18608,5.08074 -4.3051,6.38834 -1.21733,14.16105 6.65059,16.74128 1.60297,0.52568 6.79232,-0.2505 8.87624,-1.32764 z"
           id="path2" />
        <path
           id="path5"
           style="fill:none;stroke:#233040;stroke-width:10.8;stroke-linecap:round;stroke-linejoin:bevel;stroke-dasharray:none;stroke-opacity:1"
           d="m 314.9356,284.08333 c 61.04649,59.7113 125.78168,106.99034 236.2891,0 m -236.2891,-1.30539 c 61.04649,-59.7113 125.78168,-106.99034 236.2891,0" />
        <circle
           style="fill:none;stroke:#233040;stroke-width:10.8;stroke-linecap:round;stroke-linejoin:bevel;stroke-dasharray:none;stroke-opacity:1"
           id="path10"
           cx="433.08017"
           cy="283.43063"
           r="54.178715" />
      </g>
      <path
         style="fill:none;stroke:#fbbf24;stroke-width:24.757;stroke-linecap:round;stroke-linejoin:bevel;stroke-dasharray:none;stroke-opacity:1"
         d="M 497.29786,227.55545 388.95013,335.90318"
         id="path16" />
      <path
         style="fill:none;stroke:#233040;stroke-width:12.8759;stroke-linecap:round;stroke-linejoin:bevel;stroke-dasharray:none;stroke-opacity:1"
         d="M 512.51642,212.33689 369.53709,355.31622"
         id="path15" />
    </g>
    <rect
       style="fill:#233040;fill-opacity:1;stroke-width:0.465555"
       id="rect12"
       width="512"
       height="129.77045"
       x="10"
       y="392.22955" />
    <g
       id="g2"
       transform="matrix(0.92473604,0,0,0.92415268,20.020209,-63.577494)">
      <path
         id="path21"
         style="fill:none;fill-opacity:1;stroke:#233040;stroke-width:16.554;stroke-linecap:round;stroke-linejoin:bevel;stroke-dasharray:none;stroke-opacity:1"
         d="m 264.32893,483.70839 c -59.80744,-92.41521 -132.95045,5.69749 -194.514031,0 m 197.856191,0 c 59.80744,-92.41521 132.95045,5.69749 194.51402,0" />
      <path
         id="path22"
         style="fill:none;fill-opacity:1;stroke:#233040;stroke-width:10.2854;stroke-linecap:round;stroke-linejoin:bevel;stroke-dasharray:none;stroke-opacity:1"
         d="m 264.32893,458.30263 c -59.80744,-92.41521 -132.95045,5.69749 -194.514031,0 m 197.856191,0 c 59.80744,-92.41521 132.95045,5.69749 194.51402,0" />
      <path
         id="path4"
         style="fill:none;fill-opacity:1;stroke:#233040;stroke-width:10.2854;stroke-linecap:round;stroke-linejoin:bevel;stroke-dasharray:none;stroke-opacity:1"
         d="m 264.32893,438.30263 c -59.80744,-92.41521 -132.95045,5.69749 -194.514031,0 m 197.856191,0 c 59.80744,-92.41521 132.95045,5.69749 194.51402,0" />
    </g>
    <text
       xml:space="preserve"
       style="font-style:normal;font-variant:normal;font-weight:bold;font-stretch:normal;font-size:121.297px;font-family:'HP Simplified';-inkscape-font-specification:'HP Simplified, Bold';font-variant-ligatures:normal;font-variant-caps:normal;font-variant-numeric:normal;font-variant-east-asian:normal;text-align:start;letter-spacing:0px;writing-mode:lr-tb;direction:ltr;text-anchor:start;fill:#f8ae07;fill-opacity:1;stroke:none;stroke-width:3.88023;stroke-linecap:round;stroke-linejoin:bevel"
       x="70.393433"
       y="573.73096"
       id="text12"
       transform="scale(1.1734366,0.85219773)"><tspan
         id="tspan12"
         x="70.393433"
         y="573.73096"
         style="fill:#f8ae07;fill-opacity:1;stroke-width:3.88023">DAISY</tspan></text>
  </g>
</svg>
